<svg width="71" height="68" viewBox="0 0 71 68" fill="none" xmlns="http://www.w3.org/2000/svg">
<circle cx="33" cy="35" r="32.5" fill="#6A8E84" stroke="#F3E9E9"/>
<g filter="url(#filter0_d_1060_6)">
<mask id="path-2-outside-1_1060_6" maskUnits="userSpaceOnUse" x="31" y="0" width="36" height="28" fill="black">
<rect fill="white" x="31" width="36" height="28"/>
<path d="M33 2C39.9705 2 46.7619 4.20719 52.4006 8.30509C58.0392 12.403 62.2355 18.1811 64.3877 24.811L64.3744 24.8153C62.2232 18.1882 58.0287 12.4125 52.3924 8.31634C46.7561 4.22017 39.9675 2.01391 33 2.01391L33 2Z"/>
</mask>
<path d="M33 2C39.9705 2 46.7619 4.20719 52.4006 8.30509C58.0392 12.403 62.2355 18.1811 64.3877 24.811L64.3744 24.8153C62.2232 18.1882 58.0287 12.4125 52.3924 8.31634C46.7561 4.22017 39.9675 2.01391 33 2.01391L33 2Z" fill="#E5CAB7"/>
<path d="M33 2C39.9705 2 46.7619 4.20719 52.4006 8.30509C58.0392 12.403 62.2355 18.1811 64.3877 24.811L64.3744 24.8153C62.2232 18.1882 58.0287 12.4125 52.3924 8.31634C46.7561 4.22017 39.9675 2.01391 33 2.01391L33 2Z" stroke="white" stroke-width="4" mask="url(#path-2-outside-1_1060_6)"/>
</g>
<defs>
<filter id="filter0_d_1060_6" x="27" y="0" width="43.9074" height="35.3352" filterUnits="userSpaceOnUse" color-interpolation-filters="sRGB">
<feFlood flood-opacity="0" result="BackgroundImageFix"/>
<feColorMatrix in="SourceAlpha" type="matrix" values="0 0 0 0 0 0 0 0 0 0 0 0 0 0 0 0 0 0 127 0" result="hardAlpha"/>
<feOffset dy="4"/>
<feGaussianBlur stdDeviation="2"/>
<feComposite in2="hardAlpha" operator="out"/>
<feColorMatrix type="matrix" values="0 0 0 0 0 0 0 0 0 0 0 0 0 0 0 0 0 0 0.25 0"/>
<feBlend mode="normal" in2="BackgroundImageFix" result="effect1_dropShadow_1060_6"/>
<feBlend mode="normal" in="SourceGraphic" in2="effect1_dropShadow_1060_6" result="shape"/>
</filter>
</defs>
</svg>
