<svg width="72" height="78" viewBox="0 0 72 78" fill="none" xmlns="http://www.w3.org/2000/svg">
<circle cx="33" cy="35" r="32.5" fill="#799B94" stroke="#F3E9E9"/>
<g filter="url(#filter0_d_1060_7)">
<mask id="path-2-outside-1_1060_7" maskUnits="userSpaceOnUse" x="31" y="0" width="37" height="70" fill="black">
<rect fill="white" x="31" width="37" height="70"/>
<path d="M33 2C37.3336 2 41.6248 2.85357 45.6286 4.51198C49.6323 6.17038 53.2702 8.60114 56.3345 11.6655C59.3989 14.7298 61.8296 18.3677 63.488 22.3715C65.1464 26.3752 66 30.6664 66 35C66 39.3336 65.1464 43.6248 63.488 47.6286C61.8296 51.6323 59.3989 55.2702 56.3345 58.3345C53.2702 61.3989 49.6323 63.8296 45.6285 65.488C41.6248 67.1464 37.3336 68 33 68V67.9861C37.3318 67.9861 41.6212 67.1329 45.6232 65.4752C49.6253 63.8175 53.2616 61.3877 56.3247 58.3247C59.3877 55.2617 61.8175 51.6253 63.4752 47.6232C65.1329 43.6212 65.9861 39.3318 65.9861 35C65.9861 30.6682 65.1329 26.3788 63.4752 22.3768C61.8175 18.3747 59.3877 14.7384 56.3247 11.6753C53.2617 8.61227 49.6253 6.18253 45.6232 4.52483C41.6212 2.86712 37.3318 2.01391 33 2.01391V2Z"/>
</mask>
<path d="M33 2C37.3336 2 41.6248 2.85357 45.6286 4.51198C49.6323 6.17038 53.2702 8.60114 56.3345 11.6655C59.3989 14.7298 61.8296 18.3677 63.488 22.3715C65.1464 26.3752 66 30.6664 66 35C66 39.3336 65.1464 43.6248 63.488 47.6286C61.8296 51.6323 59.3989 55.2702 56.3345 58.3345C53.2702 61.3989 49.6323 63.8296 45.6285 65.488C41.6248 67.1464 37.3336 68 33 68V67.9861C37.3318 67.9861 41.6212 67.1329 45.6232 65.4752C49.6253 63.8175 53.2616 61.3877 56.3247 58.3247C59.3877 55.2617 61.8175 51.6253 63.4752 47.6232C65.1329 43.6212 65.9861 39.3318 65.9861 35C65.9861 30.6682 65.1329 26.3788 63.4752 22.3768C61.8175 18.3747 59.3877 14.7384 56.3247 11.6753C53.2617 8.61227 49.6253 6.18253 45.6232 4.52483C41.6212 2.86712 37.3318 2.01391 33 2.01391V2Z" fill="#E5CAB7"/>
<path d="M33 2C37.3336 2 41.6248 2.85357 45.6286 4.51198C49.6323 6.17038 53.2702 8.60114 56.3345 11.6655C59.3989 14.7298 61.8296 18.3677 63.488 22.3715C65.1464 26.3752 66 30.6664 66 35C66 39.3336 65.1464 43.6248 63.488 47.6286C61.8296 51.6323 59.3989 55.2702 56.3345 58.3345C53.2702 61.3989 49.6323 63.8296 45.6285 65.488C41.6248 67.1464 37.3336 68 33 68V67.9861C37.3318 67.9861 41.6212 67.1329 45.6232 65.4752C49.6253 63.8175 53.2616 61.3877 56.3247 58.3247C59.3877 55.2617 61.8175 51.6253 63.4752 47.6232C65.1329 43.6212 65.9861 39.3318 65.9861 35C65.9861 30.6682 65.1329 26.3788 63.4752 22.3768C61.8175 18.3747 59.3877 14.7384 56.3247 11.6753C53.2617 8.61227 49.6253 6.18253 45.6232 4.52483C41.6212 2.86712 37.3318 2.01391 33 2.01391V2Z" stroke="white" stroke-width="4" mask="url(#path-2-outside-1_1060_7)"/>
</g>
<defs>
<filter id="filter0_d_1060_7" x="27" y="0" width="45" height="78" filterUnits="userSpaceOnUse" color-interpolation-filters="sRGB">
<feFlood flood-opacity="0" result="BackgroundImageFix"/>
<feColorMatrix in="SourceAlpha" type="matrix" values="0 0 0 0 0 0 0 0 0 0 0 0 0 0 0 0 0 0 127 0" result="hardAlpha"/>
<feOffset dy="4"/>
<feGaussianBlur stdDeviation="2"/>
<feComposite in2="hardAlpha" operator="out"/>
<feColorMatrix type="matrix" values="0 0 0 0 0 0 0 0 0 0 0 0 0 0 0 0 0 0 0.25 0"/>
<feBlend mode="normal" in2="BackgroundImageFix" result="effect1_dropShadow_1060_7"/>
<feBlend mode="normal" in="SourceGraphic" in2="effect1_dropShadow_1060_7" result="shape"/>
</filter>
</defs>
</svg>
