<svg width="72" height="68" viewBox="0 0 72 68" fill="none" xmlns="http://www.w3.org/2000/svg">
<circle cx="35" cy="35" r="32.5" fill="#81A49E" stroke="#F3E9E9"/>
<g filter="url(#filter0_d_1060_8)">
<mask id="path-2-outside-1_1060_8" maskUnits="userSpaceOnUse" x="31" y="0" width="37" height="48" fill="black">
<rect fill="white" x="31" width="37" height="48"/>
<path d="M33 2C38.2074 2 43.3409 3.23236 47.9808 5.59633C52.6207 7.9603 56.6353 11.3888 59.6964 15.6015C62.7575 19.8141 64.7782 24.6915 65.5932 29.8347C66.4083 34.9779 65.9947 40.241 64.3861 45.1937L64.3729 45.1894C65.9808 40.2388 66.3942 34.9779 65.5795 29.8369C64.7648 24.6958 62.7449 19.8205 59.6851 15.6096C56.6253 11.3987 52.6124 7.97169 47.9745 5.60872C43.3365 3.24575 38.2052 2.01391 33 2.01391V2Z"/>
</mask>
<path d="M33 2C38.2074 2 43.3409 3.23236 47.9808 5.59633C52.6207 7.9603 56.6353 11.3888 59.6964 15.6015C62.7575 19.8141 64.7782 24.6915 65.5932 29.8347C66.4083 34.9779 65.9947 40.241 64.3861 45.1937L64.3729 45.1894C65.9808 40.2388 66.3942 34.9779 65.5795 29.8369C64.7648 24.6958 62.7449 19.8205 59.6851 15.6096C56.6253 11.3987 52.6124 7.97169 47.9745 5.60872C43.3365 3.24575 38.2052 2.01391 33 2.01391V2Z" fill="#E5CAB7"/>
<path d="M33 2C38.2074 2 43.3409 3.23236 47.9808 5.59633C52.6207 7.9603 56.6353 11.3888 59.6964 15.6015C62.7575 19.8141 64.7782 24.6915 65.5932 29.8347C66.4083 34.9779 65.9947 40.241 64.3861 45.1937L64.3729 45.1894C65.9808 40.2388 66.3942 34.9779 65.5795 29.8369C64.7648 24.6958 62.7449 19.8205 59.6851 15.6096C56.6253 11.3987 52.6124 7.97169 47.9745 5.60872C43.3365 3.24575 38.2052 2.01391 33 2.01391V2Z" stroke="white" stroke-width="4" mask="url(#path-2-outside-1_1060_8)"/>
</g>
<defs>
<filter id="filter0_d_1060_8" x="27" y="0" width="45" height="55.7136" filterUnits="userSpaceOnUse" color-interpolation-filters="sRGB">
<feFlood flood-opacity="0" result="BackgroundImageFix"/>
<feColorMatrix in="SourceAlpha" type="matrix" values="0 0 0 0 0 0 0 0 0 0 0 0 0 0 0 0 0 0 127 0" result="hardAlpha"/>
<feOffset dy="4"/>
<feGaussianBlur stdDeviation="2"/>
<feComposite in2="hardAlpha" operator="out"/>
<feColorMatrix type="matrix" values="0 0 0 0 0 0 0 0 0 0 0 0 0 0 0 0 0 0 0.25 0"/>
<feBlend mode="normal" in2="BackgroundImageFix" result="effect1_dropShadow_1060_8"/>
<feBlend mode="normal" in="SourceGraphic" in2="effect1_dropShadow_1060_8" result="shape"/>
</filter>
</defs>
</svg>
