<svg width="78" height="78" viewBox="0 0 78 78" fill="none" xmlns="http://www.w3.org/2000/svg">
<circle cx="41" cy="35" r="32.5" fill="#8FB0AB" stroke="#F3E9E9"/>
<g filter="url(#filter0_d_1060_9)">
<mask id="path-2-outside-1_1060_9" maskUnits="userSpaceOnUse" x="4" y="0" width="70" height="70" fill="black">
<rect fill="white" x="4" width="70" height="70"/>
<path d="M39 2C45.5268 2 51.907 3.93542 57.3338 7.5615C62.7606 11.1876 66.9903 16.3415 69.488 22.3714C71.9857 28.4014 72.6392 35.0366 71.3659 41.438C70.0926 47.8394 66.9497 53.7194 62.3345 58.3345C57.7194 62.9497 51.8394 66.0926 45.438 67.3659C39.0366 68.6392 32.4014 67.9857 26.3714 65.488C20.3415 62.9903 15.1876 58.7606 11.5615 53.3338C7.93542 47.907 6 41.5268 6 35L6.01391 35C6.01391 41.524 7.94851 47.9016 11.5731 53.3261C15.1976 58.7506 20.3493 62.9785 26.3768 65.4752C32.4042 67.9718 39.0366 68.625 45.4353 67.3523C51.8339 66.0795 57.7115 62.9379 62.3247 58.3247C66.9379 53.7115 70.0795 47.8339 71.3523 41.4353C72.625 35.0366 71.9718 28.4042 69.4752 22.3768C66.9785 16.3493 62.7506 11.1976 57.3261 7.57307C51.9016 3.94851 45.524 2.01391 39 2.01391L39 2Z"/>
</mask>
<path d="M39 2C45.5268 2 51.907 3.93542 57.3338 7.5615C62.7606 11.1876 66.9903 16.3415 69.488 22.3714C71.9857 28.4014 72.6392 35.0366 71.3659 41.438C70.0926 47.8394 66.9497 53.7194 62.3345 58.3345C57.7194 62.9497 51.8394 66.0926 45.438 67.3659C39.0366 68.6392 32.4014 67.9857 26.3714 65.488C20.3415 62.9903 15.1876 58.7606 11.5615 53.3338C7.93542 47.907 6 41.5268 6 35L6.01391 35C6.01391 41.524 7.94851 47.9016 11.5731 53.3261C15.1976 58.7506 20.3493 62.9785 26.3768 65.4752C32.4042 67.9718 39.0366 68.625 45.4353 67.3523C51.8339 66.0795 57.7115 62.9379 62.3247 58.3247C66.9379 53.7115 70.0795 47.8339 71.3523 41.4353C72.625 35.0366 71.9718 28.4042 69.4752 22.3768C66.9785 16.3493 62.7506 11.1976 57.3261 7.57307C51.9016 3.94851 45.524 2.01391 39 2.01391L39 2Z" fill="#E5CAB7"/>
<path d="M39 2C45.5268 2 51.907 3.93542 57.3338 7.5615C62.7606 11.1876 66.9903 16.3415 69.488 22.3714C71.9857 28.4014 72.6392 35.0366 71.3659 41.438C70.0926 47.8394 66.9497 53.7194 62.3345 58.3345C57.7194 62.9497 51.8394 66.0926 45.438 67.3659C39.0366 68.6392 32.4014 67.9857 26.3714 65.488C20.3415 62.9903 15.1876 58.7606 11.5615 53.3338C7.93542 47.907 6 41.5268 6 35L6.01391 35C6.01391 41.524 7.94851 47.9016 11.5731 53.3261C15.1976 58.7506 20.3493 62.9785 26.3768 65.4752C32.4042 67.9718 39.0366 68.625 45.4353 67.3523C51.8339 66.0795 57.7115 62.9379 62.3247 58.3247C66.9379 53.7115 70.0795 47.8339 71.3523 41.4353C72.625 35.0366 71.9718 28.4042 69.4752 22.3768C66.9785 16.3493 62.7506 11.1976 57.3261 7.57307C51.9016 3.94851 45.524 2.01391 39 2.01391L39 2Z" stroke="white" stroke-width="4" mask="url(#path-2-outside-1_1060_9)"/>
</g>
<defs>
<filter id="filter0_d_1060_9" x="0" y="0" width="78" height="78" filterUnits="userSpaceOnUse" color-interpolation-filters="sRGB">
<feFlood flood-opacity="0" result="BackgroundImageFix"/>
<feColorMatrix in="SourceAlpha" type="matrix" values="0 0 0 0 0 0 0 0 0 0 0 0 0 0 0 0 0 0 127 0" result="hardAlpha"/>
<feOffset dy="4"/>
<feGaussianBlur stdDeviation="2"/>
<feComposite in2="hardAlpha" operator="out"/>
<feColorMatrix type="matrix" values="0 0 0 0 0 0 0 0 0 0 0 0 0 0 0 0 0 0 0.25 0"/>
<feBlend mode="normal" in2="BackgroundImageFix" result="effect1_dropShadow_1060_9"/>
<feBlend mode="normal" in="SourceGraphic" in2="effect1_dropShadow_1060_9" result="shape"/>
</filter>
</defs>
</svg>
